<svg xmlns="http://www.w3.org/2000/svg" fill="none">

    <symbol id="assets-slash" viewBox="0 0 21 47">
        <g>
            <path fill-rule="evenodd" clip-rule="evenodd" d="M15.1752 0H21L5.82482 47H0L15.1752 0Z" fill="#F0145A"/>
        </g>
    </symbol>

    <symbol id="facebook-header" viewBox="0 0 24 24">
        <g>
            <path d="M24 12.0733C24 5.40541 18.6274 0 12 0C5.37258 0 0 5.40541 0 12.0733C0 18.0995 4.38823 23.0943 10.125 24V15.5633H7.07813V12.0733H10.125V9.41343C10.125 6.38755 11.9165 4.71615 14.6576 4.71615C15.9705 4.71615 17.3438 4.95195 17.3438 4.95195V7.92313H15.8306C14.3399 7.92313 13.875 8.85379 13.875 9.80857V12.0733H17.2031L16.6711 15.5633H13.875V24C19.6118 23.0943 24 18.0995 24 12.0733Z"/>
        </g>
    </symbol>

    <symbol id="facebook-footer" viewBox="0 0 38 38">
        <g>
            <path d="M38 19.1161C38 8.55857 29.4934 0 19 0C8.50658 0 0 8.55857 0 19.1161C0 28.6575 6.94803 36.5659 16.0312 38V24.6419H11.207V19.1161H16.0312V14.9046C16.0312 10.1136 18.8678 7.46723 23.2078 7.46723C25.2866 7.46723 27.4609 7.84059 27.4609 7.84059V12.545H25.0651C22.7048 12.545 21.9688 14.0185 21.9688 15.5302V19.1161H27.2383L26.3959 24.6419H21.9688V38C31.052 36.5659 38 28.6575 38 19.1161Z"
                  fill="#24A3FF"/>
        </g>
    </symbol>

    <symbol id="circle" viewBox="0 0 6 6">
        <g>
            <circle cx="3" cy="3.5" r="3" fill="#E6E6F0"/>
        </g>
    </symbol>

    <symbol id="burger-icon" viewBox="0 0 32 32">
        <g>
            <path d="M7 10.5H25" stroke="white" stroke-width="2"/>
            <path d="M7 16.5H25" stroke="white" stroke-width="2"/>
            <path d="M7 22.5H25" stroke="white" stroke-width="2"/>
        </g>
    </symbol>

    <symbol id="btn-close" viewBox="0 0 32 32">
        <g>
            <path d="M7 7L25 25" stroke="#EC6F5D" stroke-width="2"/>
            <path d="M25 7L7 25" stroke="#EC6F5D" stroke-width="2"/>
        </g>
    </symbol>

    <symbol id="arrow" viewBox="0 0 12 13">
        <g>
            <path d="M3.5 2L8 6.5L3.5 11"  stroke-width="2"/>
        </g>
    </symbol>
</svg>