<svg width="130" height="47" viewBox="0 0 130 47" fill="none" xmlns="http://www.w3.org/2000/svg">
<g id="Name">
<g id="Group">
<g id="Group_2">
<path id="h" d="M4.95672 0H0V35.7986H4.95672V22.5177C4.95672 20.2709 5.51557 18.4984 6.63326 17.2502C7.75095 16.002 9.2817 15.353 11.1769 15.353C12.8049 15.353 14.1655 15.9521 15.2589 17.1004C16.3523 18.2738 16.9112 19.7466 16.9112 21.5191V35.8236H21.8922V21.5191C21.8922 18.2238 20.9932 15.6276 19.1951 13.6804C17.3971 11.7332 15.0402 10.7596 12.1731 10.7596C11.347 10.7596 10.5209 10.8594 9.71906 11.0841C8.89294 11.3088 8.2369 11.5584 7.70235 11.833C7.16781 12.1076 6.65756 12.4072 6.1959 12.7567C5.73424 13.1062 5.41838 13.3558 5.27259 13.5056C5.1268 13.6554 5.00532 13.7552 4.95672 13.8301V0Z" fill="#F0145A"/>
</g>
</g>
<g id="Group_3">
<g id="Group_4">
<path id="Vector" d="M32.9727 0H27.8628V35.7689H32.9727V0Z" fill="#323264"/>
</g>
<g id="Group_5">
<path id="Vector_2" d="M63.1116 25.293L63.3671 22.7381C63.3671 19.3145 62.2429 16.453 59.9435 14.1536C57.6441 11.8541 54.7825 10.73 51.359 10.73C47.9354 10.73 44.9717 11.9563 42.5189 14.4091C40.0662 16.8618 38.8398 19.7744 38.8398 23.2491C38.8398 26.826 40.1173 29.8919 42.6211 32.4468C45.1249 35.0017 48.1398 36.2792 51.6144 36.2792C52.943 36.2792 54.1694 36.0748 55.3957 35.7171C56.6221 35.3083 57.6441 34.8995 58.3594 34.4907C59.1259 34.0308 59.8924 33.5199 60.5567 32.9578C61.2209 32.3957 61.6808 31.9869 61.8852 31.7314C62.0896 31.4759 62.2429 31.3226 62.3451 31.1693L59.0237 27.8479L58.2572 28.8188C57.7463 29.432 56.8776 30.0452 55.6512 30.7095C54.3738 31.3737 53.0452 31.6803 51.6144 31.6803C49.6216 31.6803 47.9354 31.0671 46.5046 29.7897C45.0738 28.5122 44.2052 27.0304 43.9497 25.293H63.1116ZM51.359 15.0733C53.2496 15.0733 54.7825 15.6354 56.06 16.7085C57.2864 17.8327 58.0528 19.2123 58.3594 20.9497H44.1541C44.614 19.2123 45.4315 17.8327 46.709 16.7085C47.9354 15.6354 49.5194 15.0733 51.359 15.0733Z" fill="#323264"/>
</g>
<g id="Group_6">
<path id="Vector_3" d="M86.943 34.2863C86.943 36.5347 86.2787 38.3742 84.8991 39.805C83.5705 41.1846 81.8843 41.9 79.7892 41.9C78.8695 41.9 77.9497 41.7467 77.081 41.4912C76.2124 41.2357 75.5481 40.9291 74.986 40.5714C74.4239 40.2137 73.9129 39.856 73.4019 39.3962C72.9421 38.9363 72.6355 38.6297 72.4822 38.4764C72.3289 38.3231 72.2267 38.1698 72.1245 38.0676L68.8031 41.389L69.2119 41.9C69.4674 42.2577 69.9273 42.7176 70.5404 43.2285C71.1536 43.6884 71.869 44.1994 72.6866 44.7104C73.5041 45.1703 74.5261 45.5791 75.8036 45.9368C77.081 46.2944 78.4096 46.4988 79.7892 46.4988C83.2639 46.4988 86.1254 45.3236 88.5271 42.9731C90.8776 40.5714 92.0528 37.7099 92.0528 34.2352V11.241H86.943V13.7959L86.0743 13.0294C85.5123 12.5184 84.6436 12.0074 83.4172 11.4965C82.1909 10.9855 80.8623 10.73 79.5338 10.73C76.4168 10.73 73.7596 11.9052 71.4602 14.3069C69.1608 16.7085 68.0366 19.57 68.0366 22.9936C68.0366 26.4172 69.1608 29.2787 71.4602 31.6803C73.7596 34.0819 76.4168 35.2572 79.5338 35.2572C80.4024 35.2572 81.22 35.155 82.0887 34.9506C82.9062 34.6951 83.5705 34.4396 84.1326 34.1841C84.6947 33.9286 85.2057 33.622 85.6656 33.2644C86.1254 32.9067 86.4831 32.6512 86.5853 32.549L86.943 32.1913V34.2863ZM73.1465 22.9936C73.1465 20.8475 73.8107 19.059 75.1904 17.5772C76.57 16.0953 78.2052 15.3288 80.0447 15.3288C81.8843 15.3288 83.5194 16.0953 84.8991 17.5772C86.2276 19.059 86.943 20.8475 86.943 22.9936C86.943 25.1397 86.2276 26.9282 84.8991 28.41C83.5194 29.8919 81.8843 30.6583 80.0447 30.6583C78.2052 30.6583 76.57 29.8919 75.1904 28.41C73.8107 26.9282 73.1465 25.1397 73.1465 22.9936Z" fill="#323264"/>
</g>
<g id="Group_7">
<path id="Vector_4" d="M118.724 35.7682V19.9277C118.724 17.3217 117.753 15.1244 115.862 13.3871C113.972 11.5987 111.519 10.73 108.504 10.73C107.329 10.73 106.154 10.8833 105.03 11.1899C103.905 11.5476 102.986 11.9052 102.321 12.314C101.657 12.7228 100.993 13.1827 100.38 13.7448C99.7664 14.2558 99.4087 14.6135 99.2043 14.8179C99.051 15.0222 98.8977 15.1755 98.7955 15.3288L102.117 18.6502L102.781 17.7816C103.19 17.2195 103.905 16.7085 104.978 16.1464C106.051 15.5843 107.227 15.3288 108.504 15.3288C109.986 15.3288 111.212 15.7887 112.183 16.6574C113.154 17.5261 113.614 18.6502 113.614 19.9277L104.672 21.4606C102.475 21.8183 100.686 22.687 99.4598 24.0667C98.1823 25.4463 97.5181 27.1326 97.5181 29.1254C97.5181 31.016 98.3356 32.6512 99.9708 34.0819C101.657 35.5638 103.701 36.2792 106.205 36.2792C107.073 36.2792 107.891 36.177 108.709 35.9215C109.577 35.7171 110.242 35.4616 110.804 35.2061C111.366 34.9506 111.877 34.644 112.337 34.2863C112.796 33.9287 113.103 33.6732 113.307 33.571C113.461 33.4177 113.563 33.2644 113.614 33.2133V35.7682H118.724ZM106.971 31.6803C105.643 31.6803 104.57 31.3737 103.803 30.7606C102.986 30.1474 102.628 29.432 102.628 28.6144C102.628 27.7457 102.883 26.9793 103.445 26.4172C104.008 25.8551 104.774 25.4463 105.694 25.293L113.614 24.0156V24.5265C113.614 26.826 113.052 28.5633 111.877 29.8408C110.701 31.0671 109.066 31.6803 106.971 31.6803Z" fill="#323264"/>
</g>
<g id="Group_8">
<path id="Vector_5" d="M130 0H124.89V35.7689H130V0Z" fill="#323264"/>
</g>
</g>
</g>
</svg>
